<svg xmlns="http://www.w3.org/2000/svg" class="svgIcons sr-only" width="0" height="0"
    aria-hidden="true">


    <!-- social media -->
    <symbol viewBox="0 0 24 24" id="github"><path d="m9 22v-3.9a3.4 3.4 0 01.9-2.5c-3.1-.4-6.4-1.6-6.4-7a5.4 5.4 0 011.5-3.8 5.1 5.1 0 01.1-3.8s1.2-.3 3.9 1.5a13.4 13.4 0 017 0c2.7-1.8 3.9-1.5 3.9-1.5a5.1 5.1 0 01.1 3.8 5.4 5.4 0 011.5 3.7c0 5.5-3.3 6.7-6.4 7a3.4 3.4 0 01.9 2.6v3.9m-14-6c2 .5 2 4.5 7 3"/></symbol>


    <symbol viewBox="0 0 24 24" id="instagram"><path d="M7 2h10a5 5 0 015 5v10a5 5 0 01-5 5h-10a5 5 0 01-5-5v-10a5 5 0 015-5zm9 9.37a4 4 0 11-3.37-3.37 4 4 0 013.37 3.37zm1.5-4.87h0.01"/></symbol>


    <symbol viewBox="0 0 24 24" id="facebook"><path d="M18 2h-3a5 5 0 00-5 5v3h-3v4h3v8h4v-8h3l1-4h-4v-3a1 1 0 011-1h3z" /></symbol>

    <svg viewBox="0 0 24 24" id="youtube"><path d="M22.5 6.4a2.8 2.8 0 00-1.9-2c-1.7-.4-8.6-.4-8.6-.4s-6.9 0-8.6 .5a2.8 2.8 0 00-1.9 2 29 29 0 00-.5 5.3 29 29 0 000.5 5.3 2.8 2.8 0 001.9 1.9c1.7 .5 8.6 .5 8.6 .5s6.9 0 8.6-.5a2.8 2.8 0 001.9-2 29 29 0 000.5-5.2 29 29 0 00-.5-5.4zm-12.7 8.6 5.7-3.2-5.7-3.3 0 6.5z"/></svg>


    <symbol viewBox="0 0 24 24" id="stackoverflow"><path d="M20.88 13.49v6.93h-18.48v-6.93h2.3v4.61h13.85v-4.61h2.33zm-15 1.15h11.54v2.3h-11.54v-2.3zm0.26-2.52 .51-2.26 11.28 2.5-.51 2.26-11.28-2.5zm1.32-4.61 .96-2.09 10.47 4.88-.96 2.08-10.47-4.87zm12.84 .94-1.41 1.82-9.15-7.01 1.01-1.34h1.06l8.49 6.53z" stroke="none" fill="currentColor" /></symbol>


    <symbol  viewBox="0 0 24 24" id="printer"><path d="M6 9v-7h12v7m-12 9h-2a2 2 0 01-2-2v-5a2 2 0 012-2h16a2 2 0 012 2v5a2 2 0 01-2 2h-2m-12-4h12v8h-12z"/></symbol>


    <symbol xmlns="http://www.w3.org/2000/svg" viewBox="0 0 19 24" id="wheelchair"><path d="M9.6 3a0.6 .6 0 11-1.1 0 .6 .6 0 111.1 0m0.4 13.8c0 2.1-1.7 3.9-3.9 3.9-2.1 0-3.8-1.8-3.8-3.9 0-2.2 1.7-3.9 3.8-3.9m2.9-9.9 0 0m0-.6c0.3 0 .6 .3 .6 .6s-.3 .6-.6 .6-.5-.3-.5-.6 .2-.6 .5-.6zm5.7 6.4c-.6 .6-1.4 1-2.3 1-1 0-1.8-.4-2.4-1s-1-1.4-1-2.3m7.1 15.1v-7.5h-7.1v-7.7" /></symbol>


    <!-- checkbox -->
    <symbol viewBox="0 0 24 24" id="checkbox-checked">
        <path d="M5 3h14a2 2 0 012 2v14a2 2 0 01-2 2h-14a2 2 0 01-2-2v-14a2 2 0 012-2z"
            style="fill:var(--color-icon-bg, white); stroke:none" />
        <path d="m21 12v7a2 2 0 01-2 2h-14a2 2 0 01-2-2v-14a2 2 0 012-2h10m-6 8 3 3 10-10" />
    </symbol>

    <symbol viewBox="0 0 24 24" id="checkbox">
        <path d="M5 3h14a2 2 0 012 2v14a2 2 0 01-2 2h-14a2 2 0 01-2-2v-14a2 2 0 012-2z"
            style="fill:var(--color-icon-bg, white)" />
    </symbol>

    <!-- checkbox switch -->
    <symbol viewBox="0 0 36 24" id="checkbox-switch">
        <path 
            d="M12 2h12a10 10 0 0110 10l0 0a10 10 0 01-10 10h-12a10 10 0 01-10-10l0 0a10 10 0 0110-10zm6 10a6 6 0 10-12 0 6 6 0 1012 0" />
    </symbol>

    <symbol viewBox="0 0 36 24" id="checkbox-switch-checked">
        <path style="fill:currentColor;stroke:none"
            d="M12 2h12a10 10 0 0110 10l0 0a10 10 0 01-10 10h-12a10 10 0 01-10-10l0 0a10 10 0 0110-10z m20 10a8 8 0 10-16 0 8 8 0 1016 0" />
    </symbol>


    <!-- radio -->
    <symbol viewBox="0 0 24 24" id="radio">
        <circle cx="12" cy="12" r="10" style="fill:var(--color-icon-bg, white)"></circle>
    </symbol>

    <symbol viewBox="0 0 24 24" id="radio-checked">
        <circle cx="12" cy="12" r="10" style="fill:var(--color-icon-bg, white)" />
        <circle cx="12" cy="12" r="5" fill="currentColor" stroke="none" />
    </symbol>

    <!-- user -->
    <symbol viewBox="0 0 24 24" id="user">
        <path
            d="M 15.8 6 a 3.8 3.8 0 1 1 -7.5 0 a 3.8 3.8 0 0 1 7.5 0 z m -11.3 14.1 a 7.5 7.5 0 0 1 15 0" />
    </symbol>


    <!-- mail -->
    <symbol viewBox="0 0 24 24" id="envelope">
        <path
            d="M21.8 6.8v10.5a2.3 2.3 0 01-2.3 2.2h-15a2.3 2.3 0 01-2.2-2.2v-10.5m19.5 0a2.3 2.3 0 00-2.3-2.3h-15a2.3 2.3 0 00-2.2 2.3m19.5 0v0.2a2.3 2.3 0 01-1.1 1.9l-7.5 4.6a2.3 2.3 0 01-2.4 0l-7.5-4.6a2.3 2.3 0 01-1-1.9v-.2" />
    </symbol>

    <!-- passwords -->
    <symbol viewBox="0 0 24 24" id="eye">
        <path
            d="M2 12.3a1 1 0 010-.6c1.4-4.2 5.4-7.2 10-7.2s8.6 3 10 7.2c0 .2 0 .4 0 .6-1.4 4.2-5.4 7.2-10 7.2s-8.6-3-10-7.2z M15 12a3 3 0 1 1-6 0 3 3 0 0 1 6 0Z" />
    </symbol>
    <symbol viewBox="0 0 24 24" id="eye-slash">
        <path
            d="M4 8.2a10.5 10.5 0 00-2.1 3.8c1.3 4.3 5.3 7.5 10.1 7.5 1 0 2-.1 2.9-.4m-8.7-12.9a10.5 10.5 0 015.8-1.7c4.8 0 8.8 3.2 10.1 7.5a10.5 10.5 0 01-4.3 5.8m-11.6-11.6-3.2-3.2m3.2 3.2 3.7 3.7m7.9 7.9 3.2 3.2m-3.2-3.2-3.7-3.7m0 0a3 3 0 10-4.2-4.2m4.2 4.2-4.2-4.2" />
    </symbol>


    <!-- search -->
    <symbol viewBox="0 0 24 24" id="magnifying-glass">
        <path d="m21 21-5.2-5.2m0 0a7.5 7.5 0 10-10.6-10.6 7.5 7.5 0 0010.6 10.6z" />
    </symbol>

    <!-- upload -->
    <symbol viewBox="0 0 24 24" id="arrow-up-tray">
        <path
            d="M3 17v4h18v-4m-9 0v-13m-4.5 4.5 4.5-4.5 4.5 4.5" />
    </symbol>

    <!-- download -->
    <symbol viewBox="0 0 24 24" id="arrow-down-tray">
        <path
            d="m16.5 12-4.5 4.5-4.5-4.5m4.5 4v-12m-9 12.5v4.5h18v-4.5" />
    </symbol>

    <!-- copy -->
    <symbol viewBox="0 0 24 24" id="square-2-stack">
        <path
            d="M16.5 8.3v-2.3a2.3 2.3 0 00-2.2-2.2h-8.3a2.3 2.3 0 00-2.2 2.2v8.3a2.3 2.3 0 002.2 2.2h2.3m8.2-8.2h1.5a2.3 2.3 0 012.3 2.2v7.5a2.3 2.3 0 01-2.3 2.3h-7.5a2.3 2.3 0 01-2.2-2.3v-1.5m8.2-8.2h-6a2.3 2.3 0 00-2.2 2.2v6" />
    </symbol>


    <!-- arrows -->
    <symbol viewBox="0 0 24 24" id="arrow-left">
        <path d="m10.5 19.5-7.5-7.5m0 0 7.5-7.5m-7.5 7.5h18" />
    </symbol>
    <symbol viewBox="0 0 24 24" id="arrow-right">
        <path d="m13.5 4.5 7.5 7.5m0 0-7.5 7.5m7.5-7.5h-18" />
    </symbol>


    <symbol viewBox="0 0 24 24" id="arrow-down">
        <path d="m19.5 13.5-7.5 7.5m0 0-7.5-7.5m7.5 7.5v-18" />
    </symbol>


    <!-- calendar -->
    <symbol viewBox="0 0 24 24" id="calendar">
        <path
            d="M 3 5 h 18 v 15 h -18 z M 7 5 v -3 m 10 3 v -3 m -14 6.5 h 18" />
    </symbol>

    <symbol viewBox="0 0 24 24" id="clock">
        <path d="M12 6v6h4.5m4.5 0a9 9 0 11-18 0 9 9 0 0118 0z" />
    </symbol>


    <!-- select -->
    <symbol viewBox="0 0 24 24" id="chevron-down">
        <path d="m19.5 8.3-7.5 7.5-7.5-7.5" />
    </symbol>

    <!--dark
    mode -->
    <symbol viewBox="0 0 24 24" id="moon">
        <path
            d="M21.8 15a9.7 9.7 0 01-3.8 .8c-5.4 0-9.7-4.4-9.7-9.8 0-1.3 .2-2.6 .7-3.8a9.8 9.8 0 00-6 9.1c0 5.3 4.4 9.7 9.8 9.7a9.8 9.8 0 009-6z" />
    </symbol>

    <symbol viewBox="0 0 24 24" id="sun">
        <path
            d="M12 3v2.3m6.4 .3-1.6 1.6m4.2 4.8h-2.2m-.4 6.4-1.6-1.6m-4.8 2v2.2m-4.8-4.2-1.6 1.6m-.3-6.4h-2.3m4.2-4.8-1.6-1.6m10.2 6.4a3.8 3.8 0 11-7.5 0 3.8 3.8 0 017.5 0z" />
    </symbol>


    <!-- loading spinner -->
    <symbol viewBox="0 0 24 24" id="spinner">
        <path stroke-linejoin="round" fill="none" d="M 12 2.4 a 9.6 9.6 90 1 1 -9.6 9.6">
            <animateTransform attributeName="transform" type="rotate" dur="0.75s"
                values="0 12 12;360 12 12" repeatCount="indefinite" />
        </path>
    </symbol>

    <!-- reload -->
    <symbol viewBox="0 0 24 24" id="arrow-path">
        <path
            d="M16 9.3h5l0 0m-18 10.3v-4.9m0 0h5m-5 0 3.2 3.1a8.3 8.3 0 0013.8-3.7m-16-4.2a8.3 8.3 0 0113.8-3.7l3.2 3.1m0-4.9v4.9" />
    </symbol>


    <!-- phone -->
    <symbol viewBox="0 0 24 24" id="phone">
        <path
            d="M 10 19.5 l 5.6 -3.2 l 4.4 4.3 c -3.8 2.2 -10.2 0.8 -13.2 -4.5 s -1.1 -11.5 2.7 -13.7 l 1.7 5.9 l -5.8 3.3" />
    </symbol>


    <!-- map pin -->
    <symbol viewBox="0 0 24 24" id="map-pin">
        <path
            d="M15 10.5a3 3 0 11-6 0 3 3 0 016 0zm4.5 0c0 7.1-7.5 11.3-7.5 11.3s-7.5-4.2-7.5-11.3a7.5 7.5 0 1115 0z" />
    </symbol>


    <symbol viewBox="0 0 24 24" id="trash">
        <path d="M3 6h2 16m-2 0v14a2 2 0 01-2 2h-10a2 2 0 01-2-2v-14m3 0v-2a2 2 0 012-2h4a2 2 0 012 2v2m-6 5v6m4-6v6" />
    </symbol>

    <symbol viewBox="0 0 24 24" id="filter"><path d="M22 3h-20l8 9.46v6.54l4 2v-8.54l8-9.46z"/></symbol>



</svg>