<svg xmlns="http://www.w3.org/2000/svg" class="svgIcons" width="0" height="0"
  style="position:absolute; overflow:hidden; opacity:0;" data-aria-hidden="true">

  <!-- checkbox -->

  <symbol viewBox="0 0 24 24" id="checkbox-checked">
    <path d="M5 3h14a2 2 0 012 2v14a2 2 0 01-2 2h-14a2 2 0 01-2-2v-14a2 2 0 012-2z"
      style="fill:var(--color-icon-bg, white); stroke:none" />
    <path d="m21 12v7a2 2 0 01-2 2h-14a2 2 0 01-2-2v-14a2 2 0 012-2h10m-6 8 3 3 10-10" />
  </symbol>

  <symbol viewBox="0 0 24 24" id="checkbox">
    <path d="M5 3h14a2 2 0 012 2v14a2 2 0 01-2 2h-14a2 2 0 01-2-2v-14a2 2 0 012-2z"
      style="fill:var(--color-icon-bg, white)" />
  </symbol>

  <!-- radio -->
  <symbol viewBox="0 0 24 24" id="radio">
    <circle cx="12" cy="12" r="10" style="fill:var(--color-icon-bg, white)"></circle>
  </symbol>

  <symbol viewBox="0 0 24 24" id="radio-checked">
    <circle cx="12" cy="12" r="10" style="fill:var(--color-icon-bg, white)" />
    <circle cx="12" cy="12" r="5" fill="currentColor" stroke="none" />
  </symbol>


  <!-- checkbox switch -->
  <symbol viewBox="0 0 36 24" id="checkbox-switch">
    <path style="fill:none;stroke:currentColor"
      d="M12 2h12a10 10 0 0110 10l0 0a10 10 0 01-10 10h-12a10 10 0 01-10-10l0 0a10 10 0 0110-10zm6 10a6 6 0 10-12 0 6 6 0 1012 0" />
  </symbol>

  <symbol viewBox="0 0 36 24" id="checkbox-switch-checked">
    <path style="fill:currentColor;stroke:none"
      d="M12 2h12a10 10 0 0110 10l0 0a10 10 0 01-10 10h-12a10 10 0 01-10-10l0 0a10 10 0 0110-10z m20 10a8 8 0 10-16 0 8 8 0 1016 0" />
  </symbol>


  <!-- upload -->
  <symbol viewBox="0 0 24 24" id="arrow-up-tray">
    <path
      d="M3 17v4h18v-4m-9 0v-13m-4.5 4.5 4.5-4.5 4.5 4.5" />
  </symbol>

  <!-- download -->
  <symbol viewBox="0 0 24 24" id="arrow-down-tray">
    <path
      d="m16.5 12-4.5 4.5-4.5-4.5m4.5 4v-12m-9 12.5v4.5h18v-4.5" />
  </symbol>


  <!-- arrows -->
  <symbol viewBox="0 0 24 24" id="arrow-left">
    <path d="m10.5 19.5-7.5-7.5m0 0 7.5-7.5m-7.5 7.5h18" />
  </symbol>
  <symbol viewBox="0 0 24 24" id="arrow-right">
    <path d="m13.5 4.5 7.5 7.5m0 0-7.5 7.5m7.5-7.5h-18" />
  </symbol>


  <symbol viewBox="0 0 24 24" id="arrow-down">
    <path d="m19.5 13.5-7.5 7.5m0 0-7.5-7.5m7.5 7.5v-18" />
  </symbol>


  <symbol viewBox="0 0 24 24" id="arrow-down-left">
    <path d="m19.5 4.5-15 15m0 0h11.3m-11.3 0v-11.2" />
  </symbol>
  <symbol viewBox="0 0 24 24" id="arrow-down-right">
    <path d="m4.5 4.5 15 15m0 0v-11.2m0 11.2h-11.2" />
  </symbol>

  
  <symbol viewBox="0 0 24 24" id="arrow-path">
    <path
      d="M16 9.3h5l0 0m-18 10.3v-4.9m0 0h5m-5 0 3.2 3.1a8.3 8.3 0 0013.8-3.7m-16-4.2a8.3 8.3 0 0113.8-3.7l3.2 3.1m0-4.9v4.9" />
  </symbol>
  <symbol viewBox="0 0 24 24" id="arrow-small-down">
    <path d="M12 4.5v15m0 0 6.8-6.7m-6.8 6.7-6.7-6.7" />
  </symbol>
  <symbol viewBox="0 0 24 24" id="arrow-small-left">
    <path d="M19.5 12h-15m0 0 6.8 6.8m-6.8-6.8 6.8-6.7" />
  </symbol>
  <symbol viewBox="0 0 24 24" id="arrow-small-right">
    <path d="M4.5 12h15m0 0-6.7-6.7m6.7 6.7-6.7 6.8" />
  </symbol>
  <symbol viewBox="0 0 24 24" id="arrow-small-up">
    <path d="M12 19.5v-15m0 0-6.7 6.8m6.7-6.8 6.8 6.8" />
  </symbol>
  <symbol viewBox="0 0 24 24" id="arrow-up">
    <path d="m4.5 10.5 7.5-7.5m0 0 7.5 7.5m-7.5-7.5v18" />
  </symbol>
  <symbol viewBox="0 0 24 24" id="arrow-up-left">
    <path d="m19.5 19.5-15-15m0 0v11.3m0-11.3h11.3" />
  </symbol>
  <symbol viewBox="0 0 24 24" id="arrows-right-left">
    <path d="m7.5 21-4.5-4.5m0 0 4.5-4.5m-4.5 4.5h13.5m0-13.5 4.5 4.5m0 0-4.5 4.5m4.5-4.5h-13.5" />
  </symbol>
  <symbol viewBox="0 0 24 24" id="arrows-up-down">
    <path d="m3 7.5 4.5-4.5m0 0 4.5 4.5m-4.5-4.5v13.5m13.5 0-4.5 4.5m0 0-4.5-4.5m4.5 4.5v-13.5" />
  </symbol>
  <symbol viewBox="0 0 24 24" id="arrow-up-right">
    <path d="m4.5 19.5 15-15m0 0h-11.2m11.2 0v11.3" />
  </symbol>


  <!--
    <symbol viewBox="0 0 24 24" id="arrow-up-tray">
      <path
        d="M3 16.5v2.3a2.3 2.3 0 002.3 2.2h13.5a2.3 2.3 0 002.2-2.2v-2.3m-13.5-9 4.5-4.5m0 0 4.5
  4.5m-4.5-4.5v13.5" />
    </symbol>
    -->
  <symbol viewBox="0 0 24 24" id="arrow-uturn-down">
    <path d="m15 15-6 6m0 0-6-6m6 6v-12a6 6 0 0112 0v3" />
  </symbol>
  <symbol viewBox="0 0 24 24" id="arrow-top-right-on-square">
    <path
      d="M13.5 6h-8.2a2.3 2.3 0 00-2.3 2.3v10.5a2.3 2.3 0 002.3 2.2h10.5a2.3 2.3 0 002.2-2.2v-8.3m-10.5 6 13.5-13.5m0 0h-5.2m5.2 0v5.3" />
  </symbol>
  <symbol viewBox="0 0 24 24" id="camera">
    <path
      d="M6.8 6.2a2.3 2.3 0 01-1.6 1c-.4 .1-.8 .1-1.1 .2-1.1 .2-1.8 1.1-1.8 2.2l0 8.4a2.3 2.3 0 002.2 2.3h15a2.3 2.3 0 002.3-2.3v-8.4c0-1.1-.8-2-1.9-2.2a47.9 47.9 0 00-1.1-.2 2.3 2.3 0 01-1.6-1l-.8-1.3a2.2 2.2 0 00-1.8-1.1 48.8 48.8 0 00-5.2 0 2.2 2.2 0 00-1.8 1.1l-.8 1.3z" />
  </symbol>
  <symbol viewBox="0 0 24 24" id="calendar">
    <path
      d="M6.8 3v2.3m10.5-2.3v2.3m-14.3 13.5v-11.3a2.3 2.3 0 012.3-2.2h13.5a2.3 2.3 0 012.2 2.2v11.3m-18 0a2.3 2.3 0 002.3 2.2h13.5a2.3 2.3 0 002.2-2.2m-18 0v-7.5a2.3 2.3 0 012.3-2.3h13.5a2.3 2.3 0 012.2 2.3v7.5" />
  </symbol>
  <symbol viewBox="0 0 24 24" id="chevron-double-right">
    <path d="m5.3 4.5 7.5 7.5-7.5 7.5m6-15 7.5 7.5-7.5 7.5" />
  </symbol>
  <symbol viewBox="0 0 24 24" id="chevron-double-up">
    <path d="m4.5 18.8 7.5-7.5 7.5 7.5" />
  </symbol>
  <symbol viewBox="0 0 24 24" id="chevron-double-down">
    <path d="m4.5 5.3 7.5 7.5 7.5-7.5m-15 6 7.5 7.5 7.5-7.5" />
  </symbol>
  <symbol viewBox="0 0 24 24" id="chevron-double-left">
    <path d="m18.8 4.5-7.5 7.5 7.5 7.5m-6-15-7.5 7.5 7.5 7.5" />
  </symbol>
  <symbol viewBox="0 0 24 24" id="chevron-down">
    <path d="m19.5 8.3-7.5 7.5-7.5-7.5" />
  </symbol>
  <symbol viewBox="0 0 24 24" id="chevron-left">
    <path d="m15.8 19.5-7.5-7.5 7.5-7.5" />
  </symbol>
  <symbol viewBox="0 0 24 24" id="chevron-right">
    <path d="m8.3 4.5 7.5 7.5-7.5 7.5" />
  </symbol>
  <symbol viewBox="0 0 24 24" id="chevron-up">
    <path d="m4.5 15.8 7.5-7.5 7.5 7.5" />
  </symbol>
  <symbol viewBox="0 0 24 24" id="chevron-up-down">
    <path d="m8.3 15 3.7 3.8 3.8-3.8m-7.5-6 3.7-3.7 3.8 3.7" />
  </symbol>
  <symbol viewBox="0 0 24 24" id="clipboard">
    <path
      d="M15.7 3.9a2.3 2.3 0 00-2.2-1.6h-3c-1 0-1.9 .6-2.2 1.6m7.4 0c0 .2 .1 .4 .1 .6h0a0.8 .8 0 01-.8 .8h-6a0.8 .8 0 01-.7-.8l0 0c0-.2 0-.4 0-.6m7.4 0c0.6 0 1.3 .1 1.9 .2 1.1 .1 1.9 1 1.9 2.2v13.2a2.3 2.3 0 01-2.2 2.3h-10.5a2.3 2.3 0 01-2.3-2.3v-13.2c0-1.2 .8-2.1 1.9-2.2a48.2 48.2 0 011.9-.2" />
  </symbol>
  <symbol viewBox="0 0 24 24" id="code-bracket-square">
    <path
      d="m14.3 9.8 2.2 2.2-2.2 2.3m-4.5 0-2.3-2.3 2.3-2.2m-3.8 10.5h12a2.3 2.3 0 002.3-2.3v-12a2.3 2.3 0 00-2.3-2.2h-12a2.3 2.3 0 00-2.2 2.2v12a2.3 2.3 0 002.2 2.3z" />
  </symbol>
  <symbol viewBox="0 0 24 24" id="computer-desktop">
    <path
      d="M9 17.3v1a3 3 0 01-.9 2.1l-.6 .6h9l-.6-.6a3 3 0 01-.9-2.1v-1m6-12v9.7a2.3 2.3 0 01-2.2 2.3h-13.5a2.3 2.3 0 01-2.3-2.3v-9.7m18 0a2.3 2.3 0 00-2.2-2.3h-13.5a2.3 2.3 0 00-2.3 2.3m18 0v6.7a2.3 2.3 0 01-2.2 2.3h-13.5a2.3 2.3 0 01-2.3-2.3v-6.7" />
  </symbol>
  <symbol viewBox="0 0 24 24" id="document">
    <path
      d="M19.5 14.3v-2.7a3.4 3.4 0 00-3.4-3.3h-1.5a1.1 1.1 0 01-1.1-1.2v-1.5a3.4 3.4 0 00-3.4-3.3h-1.8m2.2 0h-4.9c-.6 0-1.1 .5-1.1 1.1v17.2c0 .6 .5 1.2 1.1 1.2l12.8 0c0.6 0 1.1-.6 1.1-1.2v-9.3a9 9 0 00-9-9z" />
  </symbol>
  <symbol viewBox="0 0 24 24" id="device-phone-mobile">
    <path
      d="M10.5 1.5h-2.2a2.3 2.3 0 00-2.3 2.3v16.5a2.3 2.3 0 002.3 2.2h7.5a2.3 2.3 0 002.2-2.2v-16.5a2.3 2.3 0 00-2.2-2.3h-2.3m-3 0v1.5h3v-1.5m-3 0h3m-3 18.8h3" />
  </symbol>
  <symbol viewBox="0 0 24 24" id="device-tablet">
    <path
      d="M10.5 19.5h3m-6.7 2.3h10.5a2.3 2.3 0 002.2-2.3v-15a2.3 2.3 0 00-2.2-2.2h-10.5a2.3 2.3 0 00-2.3 2.2v15a2.3 2.3 0 002.3 2.3z" />
  </symbol>
  <symbol viewBox="0 0 24 24" id="document-duplicate">
    <path
      d="M15.8 17.3v3.3c0 .6-.6 1.2-1.2 1.2l-9.7 0a1.1 1.1 0 01-1.1-1.2v-12.7c0-.6 .5-1.1 1.1-1.1l1.9 0a9.1 9.1 0 011.5 .1m7.5 10.4h3.3c0.6 0 1.2-.6 1.2-1.2l0-4.8c0-4.5-3.3-8.2-7.5-8.9a9.1 9.1 0 00-1.5-.1h-1.9c-.6 0-1.1 .5-1.1 1.1l0 3.5m7.5 10.4h-6.4a1.1 1.1 0 01-1.1-1.2v-9.2m12 6.6v-1.9a3.4 3.4 0 00-3.4-3.3h-1.5a1.1 1.1 0 01-1.1-1.2v-1.5a3.4 3.4 0 00-3.4-3.3h-1.1" />
  </symbol>
  <symbol viewBox="0 0 24 24" id="envelope">
    <path
      d="M21.8 6.8v10.5a2.3 2.3 0 01-2.3 2.2h-15a2.3 2.3 0 01-2.2-2.2v-10.5m19.5 0a2.3 2.3 0 00-2.3-2.3h-15a2.3 2.3 0 00-2.2 2.3m19.5 0v0.2a2.3 2.3 0 01-1.1 1.9l-7.5 4.6a2.3 2.3 0 01-2.4 0l-7.5-4.6a2.3 2.3 0 01-1-1.9v-.2" />
  </symbol>
  <symbol viewBox="0 0 24 24" id="ellipsis-vertical">
    <path
      d="M12 6.8a0.8 .8 0 110-1.5 .8 .8 0 010 1.5zm0 6a0.8 .8 0 110-1.5 .8 .8 0 010 1.5zm0 6a0.8 .8 0 110-1.5 .8 .8 0 010 1.5z" />
  </symbol>
  <symbol viewBox="0 0 24 24" id="ellipsis-horizontal">
    <path
      d="M6.8 12a0.8 .8 0 11-1.5 0 .8 .8 0 011.5 0zm6 0a0.8 .8 0 11-1.5 0 .8 .8 0 011.5 0zm6 0a0.8 .8 0 11-1.5 0 .8 .8 0 011.5 0z" />
  </symbol>
  <symbol viewBox="0 0 24 24" id="finger-print">
    <path
      d="M7.9 4.2a7.5 7.5 0 0111.6 6.3c0 2.9-.6 5.7-1.6 8.3m-12.2-12.4a7.5 7.5 0 00-1.2 4.1 7.5 7.5 0 01-1.1 4m1.9 3.6a11.2 11.2 0 003-7.6 3.8 3.8 0 117.5 0c0 .5-.1 1-.1 1.6m-3.7-1.6a14.9 14.9 0 01-3.6 9.8m6.6-4.6a18.7 18.7 0 01-2.5 5.3" />
  </symbol>
  <symbol viewBox="0 0 24 24" id="film">
    <path
      d="M3.4 19.5h17.2m-17.2 0a1.1 1.1 0 01-1.1-1.1m1.1 1.1h1.5c0.6 0 1.1-.5 1.1-1.1m-3.7 0v-12.8m0 12.8v-1.5c0-.6 .5-1.1 1.1-1.1m18.4 2.6v-12.8m0 12.8c0 .6-.6 1.1-1.2 1.1m1.2-1.1v-1.5c0-.6-.6-1.1-1.2-1.1m0 3.7h-1.5a1.1 1.1 0 01-1.1-1.1m2.6-13.9h-17.2m17.2 0c0.6 0 1.2 .5 1.2 1.1m-1.2-1.1h-1.5c-.6 0-1.1 .5-1.1 1.1m3.8 0v1.5c0 .6-.6 1.2-1.2 1.2m-17.2-3.8c-.6 0-1.1 .5-1.1 1.1m1.1-1.1h1.5c0.6 0 1.1 .5 1.1 1.1m-3.7 0v1.5c0 .6 .5 1.2 1.1 1.2m0 0h1.5m-1.5 0c-.6 0-1.1 .5-1.1 1.1l0 1.5c0 .6 .5 1.1 1.1 1.1m1.5-3.7c0.6 0 1.1-.6 1.1-1.2v-1.5m-1.1 2.7c0.6 0 1.1 .5 1.1 1.1v1.5m0-5.3v5.3m0-5.3c0-.6 .5-1.1 1.1-1.1h9.8c0.6 0 1.1 .5 1.1 1.1m1.1 2.7h1.5m-1.5 0a1.1 1.1 0 01-1.1-1.2v-1.5m1.1 2.7c-.6 0-1.1 .5-1.1 1.1v1.5m2.6-2.6c0.6 0 1.2 .5 1.2 1.1l0 1.5c0 .6-.6 1.1-1.2 1.1m-2.6-6.4v5.3m-10.9 1.1h9.8m-9.8 0a1.1 1.1 0 01-1.1-1.1m1.1 1.1c-.6 0-1.1 .5-1.1 1.1m0-2.2c0 .6-.5 1.1-1.1 1.1m13.1-1.1c0 .6-.5 1.1-1.1 1.1m1.1-1.1c0 .6 .5 1.1 1.1 1.1m-2.2 0c0.6 0 1.1 .5 1.1 1.1m-12 5.3v-5.3m0 5.3c0 .6 .5 1.1 1.1 1.1h9.8c0.6 0 1.1-.5 1.1-1.1m-12 0v-1.5c0-.6-.5-1.1-1.1-1.1m13.1 2.6v-5.3m0 5.3v-1.5c0-.6 .5-1.1 1.1-1.1m-1.1-2.7v1.5c0 .6 .5 1.2 1.1 1.2m-1.1-2.7c0-.6 .5-1.1 1.1-1.1m-13.1 1.1v1.5c0 .6-.5 1.2-1.1 1.2m1.1-2.7c0-.6-.5-1.1-1.1-1.1m-1.5 0h1.5m-1.5 0c-.6 0-1.1 .5-1.1 1.1l0 1.5c0 .6 .5 1.2 1.1 1.2m15.7-3.8h1.5m0 0c0.6 0 1.2 .5 1.2 1.1l0 1.5c0 .6-.6 1.2-1.2 1.2m-17.2 0h1.5m14.2 0h1.5" />
  </symbol>
  <symbol viewBox="0 0 24 24" id="forward">
    <path
      d="M3 8.7c0-.9 .9-1.4 1.7-1l7.1 4.1a1.1 1.1 0 010 1.9l-7.1 4.1a1.1 1.1 0 01-1.7-1v-8.1zm9.8 0c0-.9 .9-1.4 1.6-1l7.1 4.1a1.1 1.1 0 010 1.9l-7.1 4.1a1.1 1.1 0 01-1.6-1v-8.1z" />
  </symbol>
  <symbol viewBox="0 0 24 24" id="globe-alt">
    <path
      d="M12 21a9 9 0 008.7-6.7m-8.7 6.7a9 9 0 01-8.7-6.7m8.7 6.7c2.5 0 4.5-4 4.5-9s-2-9-4.5-9m0 18c-2.5 0-4.5-4-4.5-9s2-9 4.5-9m0 0a9 9 0 017.8 4.6m-7.8-4.6a9 9 0 00-7.8 4.6m15.6 0a12 12 0 01-7.8 2.9c-3 0-5.7-1.1-7.8-2.9m15.6 0a9 9 0 011.2 4.4c0 .8-.1 1.5-.3 2.3m0 0a17.9 17.9 0 01-8.7 2.2c-3.2 0-6.1-.8-8.7-2.2m0 0a9 9 0 01-.3-2.3c0-1.6 .4-3.1 1.2-4.4" />
  </symbol>
  <symbol viewBox="0 0 24 24" id="heart">
    <path
      d="M21 8.3c0-2.5-2.1-4.5-4.7-4.5-1.9 0-3.6 1.1-4.3 2.7-.7-1.6-2.4-2.7-4.3-2.7-2.6 0-4.7 2-4.7 4.5 0 7.2 9 12 9 12s9-4.8 9-12z" />
  </symbol>
  <symbol viewBox="0 0 24 24" id="hand-thumb-down">
    <path
      d="M7.5 15.3h-3.1c-1.1 0-2-.7-2.1-1.8a12.1 12.1 0 010-1.2c0-2.9 .9-5.5 2.6-7.6 .4-.5 1-.7 1.6-.7h4a4.5 4.5 0 011.4 .2l3.2 1.1a4.5 4.5 0 001.4 .2h1.3m-10.3 9.8c0.6 0 1 .7 .7 1.2a7.5 7.5 0 00-.7 3.3 2.3 2.3 0 002.3 2.2 .8 .8 0 000.7-.7v-.7c0-.6 .1-1.1 .3-1.7 .3-.7 1-1.3 1.7-1.7a9 9 0 002.8-2.4c0.5-.6 1.3-1 2.1-1l0.4 0m-10.3 1.5h2.2m8.1-9.8s0 .1 0 .1c0.6 1.2 1 2.6 1 4 0 1.5-.4 2.9-1 4.2m0-8.3c-.1-.4 .2-.7 .5-.7l1 0c0.8 0 1.7 .5 1.9 1.3 .4 1.1 .6 2.3 .6 3.5 0 1.6-.3 3.1-.9 4.4-.3 .8-1.1 1.3-1.9 1.3l-1.1 0c-.4 0-.7-.6-.5-1a8.9 8.9 0 000.4-.5" />
  </symbol>
  <symbol viewBox="0 0 24 24" id="hand-thumb-up">
    <path
      d="M6.6 10.3c0.8 0 1.6-.5 2.1-1.1a9 9 0 012.8-2.4c0.7-.4 1.4-1 1.7-1.7a4.5 4.5 0 000.3-1.7v-.6a0.8 .8 0 010.8-.8 2.3 2.3 0 012.2 2.3c0 1.1-.3 2.2-.7 3.2-.3 .5 .1 1.3 .7 1.3m0 0h3.1c1.1 0 2 .6 2.1 1.7 0 .4 .1 .8 .1 1.3a11.9 11.9 0 01-2.7 7.5c-.4 .5-1 .7-1.6 .7h-4c-.5 0-1-.1-1.4-.2l-3.2-1.1a4.5 4.5 0 00-1.4-.2h-1.6m10.6-9.7h-2.2m-8.4 9.7c0.1 .2 .2 .4 .3 .6 .2 .4-.1 .9-.5 .9h-1c-.8 0-1.7-.5-1.9-1.4a12 12 0 01-.6-3.5c0-1.5 .3-3 .9-4.4 .3-.7 1.1-1.2 1.9-1.2h1.1c0.4 0 .7 .6 .5 1a9 9 0 00-1.3 4.6c0 1.2 .2 2.4 .6 3.4z" />
  </symbol>
  <symbol viewBox="0 0 24 24" id="inbox">
    <path
      d="M2.3 13.5h3.8a2.3 2.3 0 012 1.2l0.3 .6a2.3 2.3 0 002 1.2h3.2a2.3 2.3 0 002-1.2l0.3-.6a2.3 2.3 0 012-1.2h3.9m-19.5 .3v4.2a2.3 2.3 0 002.2 2.3h15a2.3 2.3 0 002.3-2.3v-4.2c0-.2-.1-.4-.2-.6l-2.4-7.9a2.3 2.3 0 00-2.1-1.5h-10.2a2.3 2.3 0 00-2.1 1.5l-2.4 7.9a2.3 2.3 0 00-.1 .6z" />
  </symbol>
  <symbol viewBox="0 0 24 24" id="inbox-arrow-down">
    <path
      d="M9 3.8h-2.1a2.3 2.3 0 00-2.1 1.5l-2.4 7.9a2.3 2.3 0 00-.1 .6v4.2a2.3 2.3 0 002.2 2.3h15a2.3 2.3 0 002.3-2.3v-4.2c0-.2-.1-.4-.2-.6l-2.4-7.9a2.3 2.3 0 00-2.1-1.5h-2.1m-12.7 9.7h3.8a2.3 2.3 0 012 1.2l0.3 .6a2.3 2.3 0 002 1.2h3.2a2.3 2.3 0 002-1.2l0.3-.6a2.3 2.3 0 012-1.2h3.9m-9.8-10.5v8.3m0 0-3-3m3 3 3-3" />
  </symbol>
  <symbol viewBox="0 0 24 24" id="inbox-stack">
    <path
      d="m7.9 14.3 1.2 1.9a2.3 2.3 0 001.9 1.1h2c0.8 0 1.5-.4 1.9-1.1l1.2-1.9m-13.7-5.3h4.6a2.3 2.3 0 011.9 1l0.2 .2a2.3 2.3 0 001.9 1.1h2a2.3 2.3 0 001.9-1.1l0.2-.2a2.3 2.3 0 011.9-1h4.6m-19.2 0a2.3 2.3 0 00-.1 .8v2.2a2.3 2.3 0 002.2 2.3h15a2.3 2.3 0 002.3-2.3v-2.2c0-.3-.1-.5-.2-.8m-19.2 0a2.3 2.3 0 010.4-.6l3.3-3.9a2.3 2.3 0 011.7-.7h8.4c0.7 0 1.3 .2 1.7 .7l3.3 3.9c0.2 .2 .3 .4 .4 .6m-17.1 11.3h15a2.3 2.3 0 002.3-2.3v-2.6c0-.6-.6-1.1-1.2-1.1l-17.2 0c-.6 0-1.1 .5-1.1 1.1l0 2.6a2.3 2.3 0 002.2 2.3z" />
  </symbol>
  <symbol viewBox="0 0 24 24" id="key">
    <path
      d="M15.8 5.3a3 3 0 013 3m3 0a6 6 0 01-7.1 5.9c-.5-.1-1.1 0-1.5 .4l-2.7 2.7-2.2 0 0 2.2h-2.3v2.3h-3.7v-2.9c0-.6 .2-1.1 .6-1.6l6.5-6.5c0.4-.4 .5-1 .4-1.5a6 6 0 1112-1z" />
  </symbol>
  <symbol viewBox="0 0 24 24" id="language">
    <path
      d="m10.5 21 5.3-11.2 5.2 11.2m-9-3h7.5m-16.5-12.4a48.5 48.5 0 016-.3m0 0c1.1 0 2.2 0 3.3 .1m-3.3-.1v-2.3m3.3 2.4c-1.1 5.3-4.6 9.7-9.3 12.1m9.3-12.1c0.9 0 1.8 .1 2.7 .2m-4.6 8.5a18 18 0 01-3.8-5.8" />
  </symbol>
  <symbol viewBox="0 0 24 24" id="minus">
    <path d="M5 12h14" />
  </symbol>
  <symbol viewBox="0 0 24 24" id="minus-circle">
    <path d="M15 12h-6m12 0a9 9 0 11-18 0 9 9 0 0118 0z" />
  </symbol>
  <symbol viewBox="0 0 24 24" id="moon">
    <path
      d="M21.8 15a9.7 9.7 0 01-3.8 .8c-5.4 0-9.7-4.4-9.7-9.8 0-1.3 .2-2.6 .7-3.8a9.8 9.8 0 00-6 9.1c0 5.3 4.4 9.7 9.8 9.7a9.8 9.8 0 009-6z" />
  </symbol>
  <symbol viewBox="0 0 24 24" id="musical-note">
    <path
      d="m9 9 10.5-3m0 6.6v3.7a2.3 2.3 0 01-1.6 2.2l-1.4 .3a1.8 1.8 0 11-.9-3.4l2.3-.7a2.3 2.3 0 001.6-2.1zm0 0v-10.3l-10.5 3v10.3m0 0v3.7a2.3 2.3 0 01-1.6 2.2l-1.4 .3a1.8 1.8 0 01-.9-3.4l2.3-.7a2.3 2.3 0 001.6-2.1z" />
  </symbol>
  <symbol viewBox="0 0 24 24" id="paper-clip">
    <path
      d="m18.4 12.7-7.7 7.7a4.5 4.5 0 01-6.4-6.3l11-11a3 3 0 114.2 4.3l-10.9 10.9m0 0 0 0m5.7-9.9-7.9 7.8a1.5 1.5 0 002.2 2.1" />
  </symbol>
  <symbol viewBox="0 0 24 24" id="paint-brush">
    <path
      d="M9.5 16.1a3 3 0 00-5.8 1.2 2.3 2.3 0 01-2.4 2.2 4.5 4.5 0 008.5-2.2c0-.4-.1-.8-.3-1.2zm0 0a16 16 0 003.4-1.6m-5 0a16 16 0 011.6-3.4m3.4 3.4a16 16 0 004.8-4.6l3.9-5.9a1.2 1.2 0 00-1.6-1.6l-5.9 3.9a16 16 0 00-4.6 4.8m3.4 3.4a6.8 6.8 0 00-3.4-3.4" />
  </symbol>
  <symbol viewBox="0 0 24 24" id="newspaper">
    <path
      d="M12 7.5h1.5m-1.5 3h1.5m-7.5 3h7.5m-7.5 3h7.5m3-9h3.4c0.6 0 1.1 .5 1.1 1.1v9.4a2.3 2.3 0 01-2.2 2.3m-2.3-12.8v10.5a2.3 2.3 0 002.3 2.3m-2.3-12.8v-2.6c0-.6-.5-1.1-1.1-1.1l-11.3 0c-.6 0-1.1 .5-1.1 1.1v13.1a2.3 2.3 0 002.3 2.3h13.5m-12.8-12.8h3v3h-3v-3z" />
  </symbol>
  <symbol viewBox="0 0 24 24" id="map-pin">
    <path d="M15 10.5a3 3 0 11-6 0 3 3 0 016 0z" />
  </symbol>
  <symbol viewBox="0 0 24 24" id="phone">
    <path
      d="M2.3 6.8c0 8.2 6.7 15 15 15l2.2 0a2.3 2.3 0 002.3-2.3v-1.4c0-.5-.4-.9-.9-1.1l-4.4-1.1c-.5-.1-.9 .1-1.2 .4l-1 1.3c-.2 .4-.7 .6-1.2 .4a12 12 0 01-7.1-7.1c-.2-.5 0-1 .4-1.2l1.3-1c0.3-.3 .5-.7 .4-1.2l-1.1-4.4a1.1 1.1 0 00-1.1-.8h-1.4a2.3 2.3 0 00-2.2 2.2v2.3z" />
  </symbol>
  <symbol viewBox="0 0 24 24" id="play">
    <path
      d="M5.3 5.7c0-.9 .9-1.4 1.6-1l11.6 6.3a1.1 1.1 0 010 2l-11.6 6.3a1.1 1.1 0 01-1.6-1v-12.6z" />
  </symbol>
  <symbol viewBox="0 0 24 24" id="play-circle">
    <path d="M21 12a9 9 0 11-18 0 9 9 0 0118 0z" />
  </symbol>
  <symbol viewBox="0 0 24 24" id="photo">
    <path
      d="m2.3 15.8 5.1-5.2a2.3 2.3 0 013.2 0l5.2 5.2m-1.5-1.5 1.4-1.5a2.3 2.3 0 013.1 0l3 3m-18 3.7h16.5a1.5 1.5 0 001.5-1.5v-12a1.5 1.5 0 00-1.5-1.5h-16.5a1.5 1.5 0 00-1.5 1.5v12a1.5 1.5 0 001.5 1.5zm10.5-11.2h0v0h0v0zm0.3 0a0.4 .4 0 11-.7 0 .4 .4 0 010.7 0z" />
  </symbol>
  <symbol viewBox="0 0 24 24" id="plus-small">
    <path d="M12 6v12m6-6h-12" />
  </symbol>
  <symbol viewBox="0 0 24 24" id="power">
    <path d="M5.6 5.6a9 9 0 1012.8 0m-6.4-2.6v9" />
  </symbol>
  <symbol viewBox="0 0 24 24" id="presentation-chart-bar">
    <path
      d="M3.8 3v11.3a2.3 2.3 0 002.2 2.2h2.3m-4.5-13.5h-1.5m1.5 0h16.5m0 0h1.5m-1.5 0v11.3a2.3 2.3 0 01-2.3 2.2h-2.2m-7.5 0h7.5m-7.5 0-1 3m8.5-3 1 3m0 0 .5 1.5m-.5-1.5h-9.5m0 0-.5 1.5m2.2-9.7v1.5m3-3.8v3.8m3-6v6" />
  </symbol>
  <symbol viewBox="0 0 24 24" id="presentation-chart-line">
    <path
      d="M3.8 3v11.3a2.3 2.3 0 002.2 2.2h2.3m-4.5-13.5h-1.5m1.5 0h16.5m0 0h1.5m-1.5 0v11.3a2.3 2.3 0 01-2.3 2.2h-2.2m-7.5 0h7.5m-7.5 0-1 3m8.5-3 1 3m0 0 .5 1.5m-.5-1.5h-9.5m0 0-.5 1.5m0.7-9 3-3 2.1 2.1a12.1 12.1 0 013.9-3.5" />
  </symbol>
  <symbol viewBox="0 0 24 24" id="printer">
    <path
      d="M6.7 13.8c-.2 .1-.5 .1-.7 .1m0.7-.1a42.4 42.4 0 0110.6 0m-10.6 0-.4 4.2m11-4.2c0.2 .1 .5 .1 .7 .1m-.7-.1 .4 4.2m0 0 .2 2.5a1.1 1.1 0 01-1.1 1.3h-9.6c-.6 0-1.1-.6-1.1-1.3l0.2-2.5m11.4 0h1a2.3 2.3 0 002.3-2.2v-6.3c0-1.1-.8-2.1-1.8-2.2a48.1 48.1 0 00-1.9-.3m-11 11h-1a2.3 2.3 0 01-2.3-2.2v-6.3c0-1.1 .8-2.1 1.8-2.2a48 48 0 012-.3m10.5 0a48.5 48.5 0 00-10.5 0m10.5 0v-3.6c0-.6-.6-1.1-1.2-1.1l-8.2 0c-.6 0-1.1 .5-1.1 1.1l0 3.6m11.2 3.5h0v0h0v0zm-3 0h0v0h0v0z" />
  </symbol>
  <symbol viewBox="0 0 24 24" id="qr-code">
    <path
      d="M3.8 4.9c0-.6 .5-1.1 1.1-1.1l4.5 0c0.6 0 1.1 .5 1.1 1.1v4.5c0 .6-.5 1.1-1.1 1.1h-4.5a1.1 1.1 0 01-1.1-1.1v-4.5zm0 9.7c0-.6 .5-1.1 1.1-1.1h4.5c0.6 0 1.1 .5 1.1 1.1v4.5c0 .6-.5 1.2-1.1 1.2l-4.5 0a1.1 1.1 0 01-1.1-1.2v-4.5zm9.7-9.7c0-.6 .5-1.1 1.1-1.1l4.5 0c0.6 0 1.2 .5 1.2 1.1l0 4.5c0 .6-.6 1.1-1.2 1.1h-4.5a1.1 1.1 0 01-1.1-1.1v-4.5z" />
  </symbol>
  <symbol viewBox="0 0 24 24" id="question-mark-circle">
    <path
      d="M9.9 7.5c1.1-1 3-1 4.2 0s1.2 2.7 0 3.7c-.2 .2-.4 .4-.6 .5-.8 .3-1.5 1-1.5 1.8v0.8m9-2.3a9 9 0 11-18 0 9 9 0 0118 0zm-9 5.3h0v0h0v0z" />
  </symbol>
  <symbol viewBox="0 0 24 24" id="scale">
    <path
      d="M12 3v17.3m0 0c-1.5 0-2.9 .2-4.2 .7m4.2-.7c1.5 0 2.9 .2 4.2 .7m2.6-16a48.4 48.4 0 00-6.8-.5c-2.3 0-4.5 .2-6.7 .5m13.5 0c1 .1 2 .3 3 .5m-3-.5 2.6 10.7c0.1 .5-.1 1-.6 1.2a6 6 0 01-2 .4 6 6 0 01-2.1-.4c-.5-.2-.7-.7-.6-1.2l2.7-10.7zm-16.5 .5c0.9-.2 1.9-.4 3-.5m0 0 2.6 10.7c0.1 .5-.1 1-.6 1.2a6 6 0 01-2 .4 6 6 0 01-2.1-.4c-.5-.2-.7-.7-.6-1.2l2.7-10.7z" />
  </symbol>
  <symbol viewBox="0 0 24 24" id="rss">
    <path
      d="M12.8 19.5v-.7a7.5 7.5 0 00-7.5-7.5h-.8m0-6.8h0.8c7.8 0 14.2 6.4 14.2 14.3v0.7m-13.5-.7a0.8 .8 0 11-1.5 0 .8 .8 0 011.5 0z" />
  </symbol>
  <symbol viewBox="0 0 24 24" id="share">
    <path
      d="M7.2 10.9a2.3 2.3 0 100 2.2m0-2.2c0.2 .3 .3 .7 .3 1.1s-.1 .8-.3 1.1m0-2.2 9.6-5.3m-9.6 7.5 9.6 5.3m0 0a2.3 2.3 0 103.9 2.2 2.3 2.3 0 00-3.9-2.2zm0-12.8a2.3 2.3 0 103.9-2.2 2.3 2.3 0 00-3.9 2.2z" />
  </symbol>
  <symbol viewBox="0 0 24 24" id="shopping-bag">
    <path
      d="M15.8 10.5v-4.5a3.8 3.8 0 10-7.5 0v4.5m11.3-2 1.3 12c0 .7-.5 1.2-1.1 1.2l-15.5 0a1.1 1.1 0 01-1.2-1.2l1.3-12a1.1 1.1 0 011.1-1h13c0.6 0 1 .4 1.1 1zm-11 2a0.4 .4 0 11-.7 0 .4 .4 0 010.7 0zm7.5 0a0.4 .4 0 11-.7 0 .4 .4 0 010.7 0z" />
  </symbol>
  <symbol viewBox="0 0 24 24" id="shopping-cart">
    <path
      d="M2.3 3h1.3c0.5 0 1 .3 1.1 .8l0.4 1.5m2.4 9a3 3 0 00-3 3h15.8m-12.8-3h11.2c1.1-2.4 2.1-4.7 2.9-7.2a60.1 60.1 0 00-16.5-1.8m2.4 9-2.4-9m0.9 15a0.8 .8 0 11-1.5 0 .8 .8 0 011.5 0zm12.8 0a0.8 .8 0 11-1.5 0 .8 .8 0 011.5 0z" />
  </symbol>
  <symbol viewBox="0 0 24 24" id="signal">
    <path
      d="M9.3 14.7a3.8 3.8 0 010-5.4m5.4 0a3.8 3.8 0 010 5.4m-7.5 2.1a6.8 6.8 0 010-9.6m9.6 0a6.8 6.8 0 010 9.6m-11.7 2.1c-3.8-3.8-3.8-10 0-13.8m13.8 0c3.8 3.8 3.8 10 0 13.8m-6.9-6.9h0v0h0v0zm0.4 0a0.4 .4 0 11-.8 0 .4 .4 0 010.8 0z" />
  </symbol>
  <symbol viewBox="0 0 24 24" id="star">
    <path
      d="M11.5 3.5a0.6 .6 0 011 0l2.1 5.1a0.6 .6 0 000.5 .4l5.5 .4c0.5 0 .7 .7 .4 1l-4.2 3.6a0.6 .6 0 00-.2 .5l1.3 5.4a0.6 .6 0 01-.9 .6l-4.7-2.8a0.6 .6 0 00-.6 0l-4.7 2.8a0.6 .6 0 01-.9-.6l1.3-5.4a0.6 .6 0 00-.2-.5l-4.2-3.6a0.6 .6 0 010.4-1l5.5-.4a0.6 .6 0 000.5-.4l2.1-5.1z" />
  </symbol>
  <symbol viewBox="0 0 24 24" id="speaker-wave">
    <path
      d="M19.1 5.6a9 9 0 010 12.8m-2.6-10.1a5.3 5.3 0 010 7.4m-9.7-7.4 4.7-4.8a0.8 .8 0 011.2 .6v15.8a0.8 .8 0 01-1.2 .6l-4.8-4.7-2.2 0c-.9 0-1.7-.6-1.9-1.4a9 9 0 01-.3-2.4c0-.8 .1-1.6 .3-2.4s1-1.3 1.9-1.3h2.3z" />
  </symbol>
  <symbol viewBox="0 0 24 24" id="speaker-x-mark">
    <path
      d="m17.3 9.8 2.2 2.2m0 0 2.3 2.3m-2.3-2.3 2.3-2.2m-2.3 2.2-2.2 2.3m-10.5-6 4.7-4.8a0.8 .8 0 011.2 .6v15.8a0.8 .8 0 01-1.2 .6l-4.8-4.7-2.2 0c-.9 0-1.7-.6-1.9-1.4a9 9 0 01-.3-2.4c0-.8 .1-1.6 .3-2.4s1-1.3 1.9-1.3h2.3z" />
  </symbol>
  <symbol viewBox="0 0 24 24" id="sun">
    <path
      d="M12 3v2.3m6.4 .3-1.6 1.6m4.2 4.8h-2.2m-.4 6.4-1.6-1.6m-4.8 2v2.2m-4.8-4.2-1.6 1.6m-.3-6.4h-2.3m4.2-4.8-1.6-1.6m10.2 6.4a3.8 3.8 0 11-7.5 0 3.8 3.8 0 017.5 0z" />
  </symbol>
  <symbol viewBox="0 0 24 24" id="user">
    <path
      d="M15.8 6a3.8 3.8 0 11-7.5 0 3.8 3.8 0 017.5 0zm-11.3 14.1a7.5 7.5 0 0115 0 17.9 17.9 0 01-7.5 1.7c-2.7 0-5.2-.6-7.5-1.7z" />
  </symbol>
  <symbol viewBox="0 0 24 24" id="tv">
    <path
      d="M6 20.3h12m-7.5-3v3m3-3v3m-10.1-3h17.2c0.6 0 1.2-.6 1.2-1.2l0-11.2c0-.6-.6-1.1-1.2-1.1l-17.2 0c-.6 0-1.1 .5-1.1 1.1l0 11.2c0 .6 .5 1.2 1.1 1.2z" />
  </symbol>
  <symbol viewBox="0 0 24 24" id="user-group">
    <path
      d="M18 18.7a9.1 9.1 0 003.7-.5 3 3 0 00-4.6-2.7m0.9 3.2v0c0 .3 0 .5 0 .7a11.9 11.9 0 01-6 1.6c-2.2 0-4.2-.6-6-1.6a6.1 6.1 0 010-.7m12 0a6 6 0 00-.9-3.2m0 0a6 6 0 00-5.1-2.7 6 6 0 00-5.1 2.7m0 0a3 3 0 00-4.6 2.7 9 9 0 003.7 .5m0.9-3.2a6 6 0 00-.9 3.2m9-11.9a3 3 0 11-6 0 3 3 0 016 0zm6 3a2.3 2.3 0 11-4.5 0 2.3 2.3 0 014.5 0zm-13.5 0a2.3 2.3 0 11-4.5 0 2.3 2.3 0 014.5 0z" />
  </symbol>
  <symbol viewBox="0 0 24 24" id="user-circle">
    <path
      d="M18 18.7a7.5 7.5 0 00-6-2.9 7.5 7.5 0 00-6 2.9m12 0a9 9 0 10-12 0m12 0a9 9 0 01-6 2.3 9 9 0 01-6-2.3m9-8.9a3 3 0 11-6 0 3 3 0 016 0z" />
  </symbol>
  <symbol viewBox="0 0 24 24" id="user-minus">
    <path
      d="M22 10.5h-6m-2.2-4.1a3.4 3.4 0 11-6.8 0 3.4 3.4 0 016.8 0zm-9.8 12.8v-.1a6.4 6.4 0 0112.8 0v0.1a12.3 12.3 0 01-6.4 1.8c-2.4 0-4.5-.6-6.4-1.8z" />
  </symbol>
  <symbol viewBox="0 0 24 24" id="user-plus">
    <path
      d="M18 7.5v3m0 0v3m0-3h3m-3 0h-3m-2.2-4.1a3.4 3.4 0 11-6.8 0 3.4 3.4 0 016.8 0zm-9.8 12.8v-.1a6.4 6.4 0 0112.8 0v0.1a12.3 12.3 0 01-6.4 1.8c-2.4 0-4.5-.6-6.4-1.8z" />
  </symbol>
  <symbol viewBox="0 0 24 24" id="wifi">
    <path
      d="M8.3 15a5.3 5.3 0 017.4 0m-10.6-3.1c3.8-3.9 10-3.9 13.8 0m-17-3.2c5.6-5.6 14.6-5.6 20.2 0m-9.6 9.5-.5 .6-.5-.6a0.8 .8 0 011 0z" />
  </symbol>
  <symbol viewBox="0 0 24 24" id="x-mark">
    <path d="m6 18 12-12m-12 0 12 12" />
  </symbol>
  <symbol viewBox="0 0 24 24" id="clock">
    <path d="M12 6v6h4.5m4.5 0a9 9 0 11-18 0 9 9 0 0118 0z" />
  </symbol>
  <symbol viewBox="0 0 24 24" id="trash">
    <path
      d="m14.7 9-.3 9m-4.8 0-.3-9m9.9-3.2c0.4 0 .7 .1 1.1 .2m-1.1-.2-1 13.9a2.3 2.3 0 01-2.3 2.1h-7.8a2.3 2.3 0 01-2.3-2.1l-1-13.9m14.4 0a48.1 48.1 0 00-3.4-.4m-12 .6c0.3-.1 .6-.2 1-.2m0 0a48.1 48.1 0 013.5-.4m7.5 0v-.9c0-1.2-1-2.2-2.1-2.2a52 52 0 00-3.4 0c-1.1 0-2 1-2 2.2l0 .9m7.5 0a48.7 48.7 0 00-7.5 0" />
  </symbol>
  <symbol viewBox="0 0 24 24" id="wrench">
    <path
      d="M21.8 6.8a4.5 4.5 0 01-4.9 4.4c-1.1-.1-2.3 .1-3 .9l-7.1 8.7a2.5 2.5 0 11-3.6-3.6l8.7-7.1c0.8-.7 1-1.9 .9-3a4.5 4.5 0 016.3-4.5l-3.3 3.3a3 3 0 002.3 2.3l3.3-3.3c0.2 .6 .4 1.2 .4 1.9z" />
  </symbol>
  <symbol viewBox="0 0 24 24" id="wrench-screwdriver">
    <path
      d="m11.4 15.2 5.9 5.8a2.7 2.7 0 003.7-3.7l-5.9-5.9m-3.7 3.8 2.5-3.1c0.3-.3 .8-.6 1.2-.7m-3.7 3.8-4.6 5.6a2.5 2.5 0 11-3.6-3.6l6.8-5.6m5.1-.2c0.6-.2 1.2-.2 1.8-.2a4.5 4.5 0 004.5-6.3l-3.3 3.3a3 3 0 01-2.3-2.3l3.3-3.3a4.5 4.5 0 00-6.3 4.5c0.1 1.1-.1 2.3-.9 3l-.1 .1m-1.8 1.4-4.1-4.1h-1.4l-2.2-3.7 1.5-1.5 3.7 2.2v1.4l4.3 4.3m-1.8 1.4 1.8-1.4m6.6 8.2-2.6-2.6m-10.9 3.3h0l0 0 0 0 0 0z" />
  </symbol>
  <symbol viewBox="0 0 24 24" id="swatch">
    <path
      d="M4.1 19.9a3.8 3.8 0 005.3 0l6.4-6.4m-9 7.5a3.8 3.8 0 01-3.8-3.7v-13.2c0-.6 .5-1.1 1.1-1.1h5.3c0.6 0 1.1 .5 1.1 1.1v4.1m-3.7 12.8a3.8 3.8 0 003.7-3.7v-9.1m-3.7 12.8h13.1c0.6 0 1.1-.5 1.1-1.1v-5.3c0-.6-.5-1.1-1.1-1.1h-4.1m-5.3-5.3 2.9-2.9c0.4-.4 1.1-.4 1.6 0l3.7 3.7c0.4 .5 .4 1.2 0 1.6l-2.9 2.9m-9 3.8h0v0h0v0z" />
  </symbol>
  <symbol viewBox="0 0 24 24" id="tag">
    <path
      d="M9.6 3h-4.3a2.3 2.3 0 00-2.3 2.3v4.3c0 .6 .2 1.1 .7 1.6l9.5 9.5c0.7 .7 1.8 .9 2.6 .4a18.1 18.1 0 005.3-5.3c0.5-.8 .3-1.9-.4-2.6l-9.5-9.5a2.3 2.3 0 00-1.6-.7z" />
  </symbol>
  <symbol viewBox="0 0 24 24" id="ticket">
    <path
      d="M16.5 6v0.8m0 3v0.7m0 3v0.8m0 3v0.7m-9-5.2h5.3m-5.3 2.2h3m-7.1-9.7c-.6 0-1.1 .5-1.1 1.1l0 3a3 3 0 010 5.2v3c0 .6 .5 1.2 1.1 1.2l17.2 0c0.6 0 1.2-.6 1.2-1.2l0-3a3 3 0 010-5.2v-3c0-.6-.6-1.1-1.2-1.1l-17.2 0z" />
  </symbol>
  <symbol viewBox="0 0 24 24" id="video-camera-slash">
    <path
      d="m15.8 10.5 4.7-4.7a0.8 .8 0 011.3 .5v11.4a0.8 .8 0 01-1.3 .5l-4.7-4.7m-3.8 5.3h-7.5a2.3 2.3 0 01-2.2-2.3v-7.5m12.8 9.1 1.4 1.4m-1.4-1.4c0.4-.4 .7-1 .7-1.6l0-9a2.3 2.3 0 00-2.3-2.2h-9c-.6 0-1.2 .2-1.6 .6m12.2 12.2-12.2-12.2m-1.4-1.4 1.4 1.4" />
  </symbol>
  <symbol viewBox="0 0 24 24" id="video-camera">
    <path
      d="m15.8 10.5 4.7-4.7a0.8 .8 0 011.3 .5v11.4a0.8 .8 0 01-1.3 .5l-4.7-4.7m-11.3 5.3h9a2.3 2.3 0 002.3-2.3v-9a2.3 2.3 0 00-2.3-2.2h-9a2.3 2.3 0 00-2.2 2.2v9a2.3 2.3 0 002.2 2.3z" />
  </symbol>
  <symbol viewBox="0 0 24 24" id="users">
    <path
      d="M15 19.1a9.4 9.4 0 002.6 .4 9.3 9.3 0 004.1-1 4.1 4.1 0 00-7.5-2.4m0.8 3 0 0c0-1.1-.3-2.1-.8-3m0.8 3v0.1a12.3 12.3 0 01-6.4 1.8c-2.3 0-4.5-.6-6.3-1.8l-.1-.1a6.4 6.4 0 0112-3m-2.2-9.7a3.4 3.4 0 11-6.7 0 3.4 3.4 0 016.7 0zm8.3 2.2a2.6 2.6 0 11-5.3 0 2.6 2.6 0 015.3 0z" />
  </symbol>
  <symbol viewBox="0 0 24 24" id="stop">
    <path
      d="M5.3 7.5a2.3 2.3 0 012.2-2.2h9a2.3 2.3 0 012.3 2.2v9a2.3 2.3 0 01-2.3 2.3h-9a2.3 2.3 0 01-2.2-2.3v-9z" />
  </symbol>
  <symbol viewBox="0 0 24 24" id="signal-slash">
    <path
      d="m3 3 8.7 8.7m0 0a0.4 .4 0 110.6 .6m-.6-.6 .6 .6m0 0 8.7 8.7m-6.3-11.7a3.8 3.8 0 010 5.4m2.1-7.5a6.8 6.8 0 010 9.6m2.1-11.7c3.8 3.8 3.8 10 0 13.8m-9.6-4.2a3.7 3.7 0 01-1-2.2m-1.1 4.3a6.8 6.8 0 01-1.6-7m-.5 9.1c-3.1-3.1-3.7-7.7-1.8-11.3m8.7 4.4h0v0h0v0z" />
  </symbol>
  <symbol viewBox="0 0 24 24" id="scissors">
    <path
      d="m7.8 8.3 1.6 .8m-1.6-.8a3 3 0 11-5.1-3 3 3 0 015.1 3zm1.6 .8a2.2 2.2 0 011.1 1.9c0 .3 0 .7 .1 1m-1.2-2.9 2.1 1.2m-3.7 5.5 1.6-.9m-1.6 .9a3 3 0 11-5.1 3 3 3 0 015.1-3zm1.6-.9a2.2 2.2 0 001.1-1.9c0-.3 0-.7 .1-1m-1.2 2.9 2.1-1.2m0-3.4a4.3 4.3 0 012-1.3l5.4-1.7a4.5 4.5 0 012.4 0l0.8 .2-7.8 4.5m-2.8-1.7a4.3 4.3 0 00-.9 1.7m3.7 0 7.8 4.5-.8 .2a4.5 4.5 0 01-2.4 0l-5.4-1.7a4.3 4.3 0 01-2-1.3m2.8-1.7-2.8 1.7" />
  </symbol>
  <symbol viewBox="0 0 24 24" id="rectangle-group">
    <path
      d="M2.3 7.1c0-.6 .5-1.1 1.1-1.1h6c0.6 0 1.1 .5 1.1 1.1v3.8c0 .6-.5 1.1-1.1 1.1h-6a1.1 1.1 0 01-1.1-1.1v-3.8zm12 1.5c0-.6 .5-1.1 1.1-1.1h5.2c0.6 0 1.2 .5 1.2 1.1l0 8.3c0 .6-.6 1.1-1.2 1.1h-5.2a1.1 1.1 0 01-1.1-1.1v-8.3zm-10.5 7.5c0-.6 .5-1.1 1.1-1.1h5.2c0.6 0 1.2 .5 1.2 1.1l0 2.3c0 .6-.6 1.1-1.2 1.1h-5.2a1.1 1.1 0 01-1.1-1.1v-2.3z" />
  </symbol>
  <symbol viewBox="0 0 24 24" id="play-pause">
    <path
      d="M21 7.5v10.5m-6-10.5v10.5m-12-1.2v-8.1c0-.9 .9-1.4 1.7-1l7.1 4.1a1.1 1.1 0 010 1.9l-7.1 4.1a1.1 1.1 0 01-1.7-1z" />
  </symbol>
  <symbol viewBox="0 0 24 24" id="plus">
    <path d="M12 4.5v15m7.5-7.5h-15" />
  </symbol>
  <symbol viewBox="0 0 24 24" id="pause">
    <path d="M15.8 5.3v13.5m-7.5-13.5v13.5" />
  </symbol>
  <symbol viewBox="0 0 24 24" id="pencil">
    <path
      d="m16.9 4.5 1.6-1.7a1.9 1.9 0 112.7 2.7l-14.4 14.3a4.5 4.5 0 01-1.9 1.1l-2.7 .9 .8-2.7a4.5 4.5 0 011.2-1.9l12.7-12.7zm0 0 2.6 2.6" />
  </symbol>
  <symbol viewBox="0 0 24 24" id="pencil-square">
    <path
      d="m16.9 4.5 1.6-1.7a1.9 1.9 0 112.7 2.7l-10.6 10.6a4.5 4.5 0 01-1.9 1.1l-2.7 .8 .8-2.7a4.5 4.5 0 011.1-1.9l9-8.9zm0 0 2.6 2.6m-1.5 6.9v4.8a2.3 2.3 0 01-2.2 2.2h-10.5a2.3 2.3 0 01-2.3-2.2v-10.5a2.3 2.3 0 012.3-2.3h4.7" />
  </symbol>
  <symbol viewBox="0 0 24 24" id="pause-circle">
    <path d="M14.3 9v6m-4.5 0v-6m11.2 3a9 9 0 11-18 0 9 9 0 0118 0z" />
  </symbol>
  <symbol viewBox="0 0 24 24" id="plus-circle">
    <path d="M12 9v6m3-3h-6m12 0a9 9 0 11-18 0 9 9 0 0118 0z" />
  </symbol>
  <symbol viewBox="0 0 24 24" id="square-2-stack">
    <path
      d="M16.5 8.3v-2.3a2.3 2.3 0 00-2.2-2.2h-8.3a2.3 2.3 0 00-2.2 2.2v8.3a2.3 2.3 0 002.2 2.2h2.3m8.2-8.2h1.5a2.3 2.3 0 012.3 2.2v7.5a2.3 2.3 0 01-2.3 2.3h-7.5a2.3 2.3 0 01-2.2-2.3v-1.5m8.2-8.2h-6a2.3 2.3 0 00-2.2 2.2v6" />
  </symbol>
  <symbol viewBox="0 0 24 24" id="square-3-stack-3d">
    <path
      d="m6.4 9.8-4.1 2.2 4.1 2.3m0-4.5 5.6 3 5.6-3m-11.2 0-4.1-2.3 9.7-5.2 9.8 5.2-4.2 2.3m0 0 4.2 2.2-4.2 2.3m0 0 4.2 2.2-9.8 5.3-9.7-5.3 4.1-2.2m11.2 0-5.6 3-5.6-3" />
  </symbol>
  <symbol viewBox="0 0 24 24" id="squares-2x2">
    <path
      d="M3.8 6a2.3 2.3 0 012.2-2.2h2.3a2.3 2.3 0 012.2 2.2v2.3a2.3 2.3 0 01-2.2 2.2h-2.3a2.3 2.3 0 01-2.2-2.2v-2.3zm0 9.8a2.3 2.3 0 012.2-2.3h2.3a2.3 2.3 0 012.2 2.3v2.2a2.3 2.3 0 01-2.2 2.3h-2.3a2.3 2.3 0 01-2.2-2.3v-2.2zm9.7-9.8a2.3 2.3 0 012.3-2.2h2.2a2.3 2.3 0 012.3 2.2v2.3a2.3 2.3 0 01-2.3 2.2h-2.2a2.3 2.3 0 01-2.3-2.2v-2.3zm0 9.8a2.3 2.3 0 012.3-2.3h2.2a2.3 2.3 0 012.3 2.3v2.2a2.3 2.3 0 01-2.3 2.3h-2.2a2.3 2.3 0 01-2.3-2.3v-2.2z" />
  </symbol>
  <symbol viewBox="0 0 24 24" id="squares-plus">
    <path
      d="M13.5 16.9h3.4m0 0h3.4m-3.4 0v-3.4m0 3.4v3.4m-10.9-9.8h2.3a2.3 2.3 0 002.2-2.2v-2.3a2.3 2.3 0 00-2.2-2.2h-2.3a2.3 2.3 0 00-2.2 2.2v2.3a2.3 2.3 0 002.2 2.2zm0 9.8h2.3a2.3 2.3 0 002.2-2.3v-2.2a2.3 2.3 0 00-2.2-2.3h-2.3a2.3 2.3 0 00-2.2 2.3v2.2a2.3 2.3 0 002.2 2.3zm9.8-9.8h2.2a2.3 2.3 0 002.3-2.2v-2.3a2.3 2.3 0 00-2.3-2.2h-2.2a2.3 2.3 0 00-2.3 2.2v2.3a2.3 2.3 0 002.3 2.2z" />
  </symbol>
  <symbol viewBox="0 0 24 24" id="trophy">
    <path
      d="M16.5 18.8h-9m9 0a3 3 0 013 3h-15a3 3 0 013-3m9 0v-3.4c0-.6-.5-1.1-1.1-1.1l-.9 0m-7 4.5v-3.4c0-.6 .5-1.1 1.1-1.1l0.9 0m5 0h-5m5 0a7.5 7.5 0 01-1-3.2m-4 3.2a7.5 7.5 0 001-3.2m-5.2-6.9c-1 .2-2 .4-3 .6a6 6 0 005.4 4.9m-2.4-5.5v0.3c0 2.1 .9 4 2.4 5.2m-2.4-5.5v-1.5c2.2-.3 4.4-.4 6.7-.4s4.5 .1 6.8 .4v1.5m-11.1 5.5a6.7 6.7 0 002.8 1.4m8.3-6.9v0.3c0 2.1-1 4-2.5 5.2m2.5-5.5a46.3 46.3 0 012.9 .6 6 6 0 01-5.4 4.9m0 0a6.7 6.7 0 01-2.8 1.4m0 0a6.8 6.8 0 01-3 0" />
  </symbol>
  <symbol viewBox="0 0 24 24" id="x-circle">
    <path d="m9.8 9.8 4.5 4.5m0-4.5-4.5 4.5m11.2-2.3a9 9 0 11-18 0 9 9 0 0118 0z" />
  </symbol>
  <symbol viewBox="0 0 24 24" id="cloud">
    <path
      d="M2.3 15a4.5 4.5 0 004.5 4.5h11.2a3.8 3.8 0 001.3-7.3 3 3 0 00-3.7-3.8 5.3 5.3 0 00-10.3 2.3 4.5 4.5 0 00-3 4.3z" />
  </symbol>
  <symbol viewBox="0 0 24 24" id="stop-circle">
    <path d="M21 12a9 9 0 11-18 0 9 9 0 0118 0z" />
  </symbol>
  <symbol viewBox="0 0 24 24" id="paper-airplane">
    <path d="m6 12-2.7-8.9a59.8 59.8 0 0118.2 8.9 59.8 59.8 0 01-18.2 8.9l2.7-8.9zm0 0h7.5" />
  </symbol>
  <symbol viewBox="0 0 24 24" id="no-symbol">
    <path d="M18.4 18.4a9 9 0 00-12.8-12.8m12.8 12.8a9 9 0 01-12.8-12.8m12.8 12.8-12.8-12.8" />
  </symbol>
  <symbol viewBox="0 0 24 24" id="microphone">
    <path
      d="M12 18.8a6 6 0 006-6v-1.5m-6 7.5a6 6 0 01-6-6v-1.5m6 7.5v3.7m-3.7 0h7.5m-3.8-6.7a3 3 0 01-3-3v-8.3a3 3 0 116 0v8.3a3 3 0 01-3 3z" />
  </symbol>
  <symbol viewBox="0 0 24 24" id="lock-closed">
    <path
      d="M16.5 10.5v-3.7a4.5 4.5 0 10-9 0v3.7m-.7 11.3h10.5a2.3 2.3 0 002.2-2.3v-6.7a2.3 2.3 0 00-2.2-2.3h-10.5a2.3 2.3 0 00-2.3 2.3v6.7a2.3 2.3 0 002.3 2.3z" />
  </symbol>
  <symbol viewBox="0 0 24 24" id="list-bullet">
    <path
      d="M8.3 6.8h12m-12 5.2h12m-12 5.3h12m-16.5-10.5h0v0h0v0zm0.3 0a0.4 .4 0 11-.7 0 .4 .4 0 010.7 0zm-.3 5.2h0v0h0v0zm0.3 0a0.4 .4 0 11-.7 0 .4 .4 0 010.7 0zm-.3 5.3h0v0h0v0zm0.3 0a0.4 .4 0 11-.7 0 .4 .4 0 010.7 0z" />
  </symbol>
  <symbol viewBox="0 0 24 24" id="link">
    <path
      d="M13.2 8.7a4.5 4.5 0 011.2 7.2l-4.5 4.5a4.5 4.5 0 01-6.3-6.3l1.7-1.8m13.4-.6 1.7-1.8a4.5 4.5 0 00-6.3-6.3l-4.5 4.5a4.5 4.5 0 001.2 7.2" />
  </symbol>
  <symbol viewBox="0 0 24 24" id="lock-open">
    <path
      d="M13.5 10.5v-3.7a4.5 4.5 0 119 0v3.7m-18.7 11.3h10.5a2.3 2.3 0 002.2-2.3v-6.7a2.3 2.3 0 00-2.2-2.3h-10.5a2.3 2.3 0 00-2.3 2.3v6.7a2.3 2.3 0 002.3 2.3z" />
  </symbol>
  <symbol viewBox="0 0 24 24" id="magnifying-glass">
    <path d="m21 21-5.2-5.2m0 0a7.5 7.5 0 10-10.6-10.6 7.5 7.5 0 0010.6 10.6z" />
  </symbol>
  <symbol viewBox="0 0 24 24" id="magnifying-glass-minus">
    <path d="m21 21-5.2-5.2m0 0a7.5 7.5 0 10-10.6-10.6 7.5 7.5 0 0010.6 10.6zm-2.3-5.3h-6" />
  </symbol>
  <symbol viewBox="0 0 24 24" id="magnifying-glass-plus">
    <path d="m21 21-5.2-5.2m0 0a7.5 7.5 0 10-10.6-10.6 7.5 7.5 0 0010.6 10.6zm-5.3-8.3v6m3-3h-6" />
  </symbol>
  <symbol viewBox="0 0 24 24" id="light-bulb">
    <path
      d="M12 18v-5.2m0 0a6 6 0 001.5-.2m-1.5 .2a6 6 0 01-1.5-.2m3.8 7.4a12.1 12.1 0 01-4.5 0m3.7 2.4a14.4 14.4 0 01-3 0m3.8-4.4v-.2c0-1 .6-1.8 1.5-2.3a7.5 7.5 0 10-7.6 0c0.9 .5 1.6 1.3 1.6 2.3l0 .2" />
  </symbol>
  <symbol viewBox="0 0 24 24" id="information-circle">
    <path
      d="m11.3 11.3 0-.1a0.8 .8 0 011.1 .9l-.8 2.8a0.8 .8 0 001.1 .9l0.1 0m8.2-3.8a9 9 0 11-18 0 9 9 0 0118 0zm-9-3.7h0v0h0v0z" />
  </symbol>
  <symbol viewBox="0 0 24 24" id="hashtag">
    <path d="M5.3 8.3h15m-16.5 7.5h15m-1.9-13.5-3.9 19.5m-2.1-19.5-3.9 19.5" />
  </symbol>
  <symbol viewBox="0 0 24 24" id="home">
    <path
      d="m2.3 12 8.9-9c0.4-.4 1.2-.4 1.6 0l9 9m-17.3-2.2v10.1c0 .6 .5 1.1 1.1 1.1h4.2v-4.9c0-.6 .5-1.1 1.1-1.1h2.2c0.6 0 1.2 .5 1.2 1.1l0 4.9h4.1c0.6 0 1.1-.5 1.1-1.1v-10.1m-11.2 11.2h8.2" />
  </symbol>
  <symbol viewBox="0 0 24 24" id="funnel">
    <path
      d="M12 3c2.8 0 5.5 .2 8.1 .7 .5 .1 .9 .5 .9 1.1v1a2.3 2.3 0 01-.7 1.6l-5.4 5.4a2.3 2.3 0 00-.6 1.6v3a2.3 2.3 0 01-1.3 2l-3.2 1.6 0-6.6a2.3 2.3 0 00-.7-1.6l-5.4-5.4a2.3 2.3 0 01-.7-1.6v-1c0-.6 .4-1 .9-1.1a48.3 48.3 0 018.1-.7z" />
  </symbol>
  <symbol viewBox="0 0 24 24" id="hand-raised">
    <path
      d="M10.1 4.6a1.6 1.6 0 10-3.2 0v3m3.2-3v-1.5a1.6 1.6 0 013.1 0v1.5m-3.1 0 0 5.9m3.1 .8v-6.7m0 0a1.6 1.6 0 013.1 0v10.4m-9.4-7.4a1.6 1.6 0 10-3.1 0v8.2a6.8 6.8 0 006.7 6.7h2a5.3 5.3 0 003.7-1.5l1.8-1.8a5.3 5.3 0 001.5-3.7v-2a0.7 .7 0 010.2-.5 1.6 1.6 0 10-2.2-2.2 3.8 3.8 0 00-1.1 2.7m-9.5-5.9v4.4m6.3 4.3a4.5 4.5 0 013.2-1.3m0 0 0 0" />
  </symbol>
  <symbol viewBox="0 0 24 24" id="eye">
    <path
      d="M2 12.3a1 1 0 010-.6c1.4-4.2 5.4-7.2 10-7.2s8.6 3 10 7.2c0 .2 0 .4 0 .6-1.4 4.2-5.4 7.2-10 7.2s-8.6-3-10-7.2z" />
  </symbol>
  <symbol viewBox="0 0 24 24" id="eye-slash">
    <path
      d="M4 8.2a10.5 10.5 0 00-2.1 3.8c1.3 4.3 5.3 7.5 10.1 7.5 1 0 2-.1 2.9-.4m-8.7-12.9a10.5 10.5 0 015.8-1.7c4.8 0 8.8 3.2 10.1 7.5a10.5 10.5 0 01-4.3 5.8m-11.6-11.6-3.2-3.2m3.2 3.2 3.7 3.7m7.9 7.9 3.2 3.2m-3.2-3.2-3.7-3.7m0 0a3 3 0 10-4.2-4.2m4.2 4.2-4.2-4.2" />
  </symbol>
  <symbol viewBox="0 0 24 24" id="eye-dropper">
    <path
      d="m15 11.3 1.5 1.5 .8-.8 0-3.2 2.2-.7a3 3 0 10-3.6-3.6l-.7 2.3-3.2 0-.7 .7 1.5 1.5m2.2 2.3-8.5 8.4c-.3 .4-.8 .6-1.3 .6-.4 0-.9 .1-1.2 .5l-1 1-.8-.8 1-1c0.4-.3 .5-.8 .5-1.2 0-.5 .2-1 .6-1.3l8.5-8.5m2.2 2.3-2.2-2.3" />
  </symbol>
  <symbol viewBox="0 0 24 24" id="envelope-open">
    <path
      d="M21.8 9v0.9a2.3 2.3 0 01-1.2 2l-6.5 3.5m-11.8-6.4v0.9a2.3 2.3 0 001.1 2l6.5 3.5m8.9 2.5-4.7-2.5m0 0-1-.6a2.3 2.3 0 00-2.2 0l-1 .6m0 0-4.6 2.5m16.5 1.6a2.3 2.3 0 01-2.3 2.2h-15a2.3 2.3 0 01-2.2-2.2v-10.7a2.3 2.3 0 011.1-1.9l7.5-4.1a2.3 2.3 0 012.2 0l7.5 4.1a2.3 2.3 0 011.2 1.9v10.7z" />
  </symbol>
  <symbol viewBox="0 0 24 24" id="cog-6-tooth">
    <path
      d="M9.6 3.9c0.1-.5 .6-.9 1.1-.9h2.6c0.5 0 1 .4 1.1 .9l0.2 1.3c0.1 .4 .3 .7 .7 .9 0 0 .1 .1 .2 .1 .3 .2 .7 .3 1.1 .1l1.2-.4a1.1 1.1 0 011.3 .5l1.3 2.2a1.1 1.1 0 01-.2 1.5l-1 .8c-.3 .2-.5 .6-.5 1a7.7 7.7 0 010 .2c0 .4 .2 .8 .5 1l1 .8c0.4 .4 .5 1 .2 1.5l-1.3 2.2a1.1 1.1 0 01-1.3 .5l-1.2-.4c-.4-.2-.8-.1-1.1 .1a6.5 6.5 0 01-.2 .1c-.4 .2-.6 .5-.7 .9l-.2 1.3c-.1 .5-.6 .9-1.1 .9h-2.6c-.5 0-1-.4-1.1-.9l-.2-1.3c-.1-.4-.3-.7-.7-.9a6.5 6.5 0 01-.2-.1c-.3-.2-.7-.3-1.1-.1l-1.2 .4a1.1 1.1 0 01-1.3-.5l-1.3-2.2a1.1 1.1 0 010.2-1.5l1-.8c0.3-.2 .5-.6 .5-1a6.9 6.9 0 010-.2c0-.4-.2-.8-.5-1l-1-.8a1.1 1.1 0 01-.2-1.5l1.3-2.2a1.1 1.1 0 011.3-.5l1.2 .4c0.4 .2 .8 .1 1.1-.1 .1 0 .2-.1 .2-.1 .4-.2 .6-.5 .7-.9l0.2-1.3z" />
  </symbol>
  <symbol viewBox="0 0 24 24" id="code-bracket">
    <path d="m17.3 6.8 5.2 5.2-5.2 5.3m-10.5 0-5.3-5.3 5.3-5.2m7.5-3-4.5 16.5" />
  </symbol>
  <symbol viewBox="0 0 24 24" id="cloud-arrow-up">
    <path
      d="M12 16.5v-6.7m0 0 3 3m-3-3-3 3m-2.2 6.7a4.5 4.5 0 01-1.5-8.8 5.3 5.3 0 0110.3-2.3 3 3 0 013.7 3.8 3.8 3.8 0 01-1.3 7.3h-11.2z" />
  </symbol>
  <symbol viewBox="0 0 24 24" id="chat-bubble-oval-left">
    <path
      d="M12 20.3c5 0 9-3.7 9-8.3s-4-8.2-9-8.2-9 3.6-9 8.2c0 2.1 .9 4 2.3 5.5 .4 .4 .7 1 .6 1.6a4.5 4.5 0 01-1 1.8 6 6 0 001.1 .1c1.3 0 2.5-.4 3.4-1.1 .9 .2 1.7 .4 2.6 .4z" />
  </symbol>
  <symbol viewBox="0 0 24 24" id="chat-bubble-oval-left-ellipsis">
    <path
      d="M8.6 12a0.4 .4 0 11-.7 0 .4 .4 0 010.7 0zm0 0h-.3m4.1 0a0.4 .4 0 11-.8 0 .4 .4 0 010.8 0zm0 0h-.4m4.1 0a0.4 .4 0 11-.7 0 .4 .4 0 010.7 0zm0 0h-.3m5.2 0c0 4.6-4 8.3-9 8.3a9.8 9.8 0 01-2.6-.4 6 6 0 01-4 1.1 6 6 0 01-.5-.1 4.5 4.5 0 001-2c0.1-.5-.1-.9-.5-1.2-1.5-1.5-2.4-3.5-2.4-5.7 0-4.6 4-8.2 9-8.2s9 3.6 9 8.2z" />
  </symbol>
  <symbol viewBox="0 0 24 24" id="check">
    <path d="m4.5 12.8 6 6 9-13.5" />
  </symbol>
  <symbol viewBox="0 0 24 24" id="check-circle">
    <path d="m9 12.8 2.3 2.2 3.7-5.2m6 2.2a9 9 0 11-18 0 9 9 0 0118 0z" />
  </symbol>
  <symbol viewBox="0 0 24 24" id="chart-bar-square">
    <path
      d="M7.5 14.3v2.2m3-4.5v4.5m3-6.7v6.7m3-9v9m-10.5 3.8h12a2.3 2.3 0 002.3-2.3v-12a2.3 2.3 0 00-2.3-2.2h-12a2.3 2.3 0 00-2.2 2.2v12a2.3 2.3 0 002.2 2.3z" />
  </symbol>
  <symbol viewBox="0 0 24 24" id="chat-bubble-left">
    <path
      d="M2.3 12.8c0 1.6 1.1 3 2.7 3.2 1 .1 2.1 .3 3.3 .4l0 4.6 4-4.1a1.5 1.5 0 011.1-.4 48.3 48.3 0 005.6-.5c1.6-.2 2.8-1.6 2.8-3.2l0-6.1c0-1.6-1.2-3-2.8-3.2a48.4 48.4 0 00-7-.5c-2.4 0-4.7 .2-7 .5-1.6 .2-2.7 1.6-2.7 3.2l0 6.1z" />
  </symbol>
  <symbol viewBox="0 0 24 24" id="book-open">
    <path
      d="M12 6a9 9 0 00-6-2.2c-1.1 0-2.1 .1-3 .5v14.2a9 9 0 013-.5c2.3 0 4.4 .9 6 2.3m0-14.3a9 9 0 016-2.2c1.1 0 2.1 .1 3 .5v14.2a9 9 0 00-3-.5 9 9 0 00-6 2.3m0-14.3v14.3" />
  </symbol>
  <symbol viewBox="0 0 24 24" id="bookmark">
    <path
      d="M17.6 3.3c1.1 .2 1.9 1.1 1.9 2.2v15.5l-7.5-3.7-7.5 3.7v-15.5c0-1.1 .8-2.1 1.9-2.2a48.5 48.5 0 0111.2 0z" />
  </symbol>
  <symbol viewBox="0 0 24 24" id="bars-3">
    <path d="M3.8 6.8h16.5m-16.5 5.2h16.5m-16.5 5.3h16.5" />
  </symbol>
  <symbol viewBox="0 0 24 24" id="bars-2">
    <path d="M3.8 9h16.5m-16.5 6.8h16.5" />
  </symbol>
  <symbol viewBox="0 0 24 24" id="bars-3-bottom-left">
    <path d="M3.8 6.8h16.5m-16.5 5.2h16.5m-16.5 5.3h8.2" />
  </symbol>
  <symbol viewBox="0 0 24 24" id="backward">
    <path
      d="M21 16.8c0 .9-.9 1.4-1.7 1l-7.1-4.1a1.1 1.1 0 010-1.9l7.1-4.1a1.1 1.1 0 011.7 1v8.1zm-9.7 0c0 .9-1 1.4-1.7 1l-7.1-4.1a1.1 1.1 0 010-1.9l7.1-4.1a1.1 1.1 0 011.7 1v8.1z" />
  </symbol>
  <symbol viewBox="0 0 24 24" id="arrow-uturn-left">
    <path d="m9 15-6-6m0 0 6-6m-6 6h12a6 6 0 010 12h-3" />
  </symbol>
  <symbol viewBox="0 0 24 24" id="arrow-uturn-right">
    <path d="m15 15 6-6m0 0-6-6m6 6h-12a6 6 0 000 12h3" />
  </symbol>
  <symbol viewBox="0 0 24 24" id="arrow-uturn-up">
    <path d="m9 9 6-6m0 0 6 6m-6-6v12a6 6 0 01-12 0v-3" />
  </symbol>
  <symbol viewBox="0 0 24 24" id="arrow-up-on-square-stack">
    <path
      d="M7.5 7.5h-.7a2.3 2.3 0 00-2.3 2.3v7.5a2.3 2.3 0 002.3 2.2h7.5a2.3 2.3 0 002.2-2.2v-7.5a2.3 2.3 0 00-2.2-2.3h-.8m0-3-3-3m0 0-3 3m3-3v11.3m6-2.3h0.8a2.3 2.3 0 012.2 2.3v7.5a2.3 2.3 0 01-2.2 2.2h-7.5a2.3 2.3 0 01-2.3-2.2v-.8" />
  </symbol>
  <symbol viewBox="0 0 24 24" id="arrow-up-circle">
    <path d="m15 11.3-3-3m0 0-3 3m3-3v7.5m9-3.8a9 9 0 11-18 0 9 9 0 0118 0z" />
  </symbol>
  <symbol viewBox="0 0 24 24" id="arrow-right-circle">
    <path d="m12.8 15 3-3m0 0-3-3m3 3h-7.5m12.7 0a9 9 0 11-18 0 9 9 0 0118 0z" />
  </symbol>
  <symbol viewBox="0 0 24 24" id="arrow-left-circle">
    <path d="m11.3 9-3 3m0 0 3 3m-3-3h7.5m5.2 0a9 9 0 11-18 0 9 9 0 0118 0z" />
  </symbol>
  <symbol viewBox="0 0 24 24" id="arrow-down-circle">
    <path d="m9 12.8 3 3m0 0 3-3m-3 3v-7.5m9 3.7a9 9 0 11-18 0 9 9 0 0118 0z" />
  </symbol>
  <symbol viewBox="0 0 24 24" id="adjustments-vertical">
    <path
      d="M6 13.5v-9.7m0 9.7a1.5 1.5 0 010 3m0-3a1.5 1.5 0 000 3m0 3.8v-3.8m12-3v-9.7m0 9.7a1.5 1.5 0 010 3m0-3a1.5 1.5 0 000 3m0 3.8v-3.8m-6-9v-3.7m0 3.7a1.5 1.5 0 010 3m0-3a1.5 1.5 0 000 3m0 9.8v-9.8" />
  </symbol>
  <symbol viewBox="0 0 24 24" id="adjustments-horizontal">
    <path
      d="M10.5 6h9.8m-9.8 0a1.5 1.5 0 11-3 0m3 0a1.5 1.5 0 10-3 0m-3.7 0h3.7m3 12h9.8m-9.8 0a1.5 1.5 0 01-3 0m3 0a1.5 1.5 0 00-3 0m-3.7 0h3.7m9-6h3.8m-3.8 0a1.5 1.5 0 01-3 0m3 0a1.5 1.5 0 00-3 0m-9.7 0h9.7" />
  </symbol>
  <symbol viewBox="0 0 24 24" id="banknotes">
    <path
      d="M2.3 18.8a60.1 60.1 0 0115.7 2.1c0.8 .1 1.5-.4 1.5-1.1v-1m-15.7-14.3v0.8a0.8 .8 0 01-.8 .7h-.7m0 0v-.4c0-.6 .5-1.1 1.1-1.1h16.9m-18 1.5v9m18-10.5v0.8c0 .4 .3 .7 .7 .7h0.8m-1.5-1.5h0.3c0.6 0 1.2 .5 1.2 1.1l0 9.8c0 .6-.6 1.1-1.2 1.1h-.3m1.5-1.5h-.8a0.8 .8 0 00-.7 .8v0.7m0 0h-16.5m0 0h-.4a1.1 1.1 0 01-1.1-1.1v-.4m1.5 1.5v-.7a0.8 .8 0 00-.8-.8h-.7m12.7-4.5a3 3 0 11-6 0 3 3 0 016 0zm3 0h0v0h0v0zm-12 0h0v0h0v0z" />
  </symbol>
  <symbol viewBox="0 0 24 24" id="arrows-pointing-in">
    <path
      d="M9 9v-4.5m0 4.5h-4.5m4.5 0-5.2-5.2m5.2 11.2v4.5m0-4.5h-4.5m4.5 0-5.2 5.3m11.2-11.3h4.5m-4.5 0v-4.5m0 4.5 5.3-5.2m-5.3 11.2h4.5m-4.5 0v4.5m0-4.5 5.3 5.3" />
  </symbol>
  <symbol viewBox="0 0 24 24" id="arrows-pointing-out">
    <path
      d="M3.8 3.8v4.5m0-4.5h4.5m-4.5 0 5.2 5.2m-5.2 11.3v-4.5m0 4.5h4.5m-4.5 0 5.2-5.3m11.3-11.2h-4.5m4.5 0v4.5m0-4.5-5.3 5.2m5.3 11.3h-4.5m4.5 0v-4.5m0 4.5-5.3-5.3" />
  </symbol>
  <symbol viewBox="0 0 24 24" id="exclamation-circle">
    <path d="M12 9v3.8m9-.8a9 9 0 11-18 0 9 9 0 0118 0zm-9 3.8h0v0h0v0z" />
  </symbol>
  <symbol viewBox="0 0 24 24" id="ellipsis-horizontal-circle">
    <path
      d="M8.6 12a0.4 .4 0 11-.7 0 .4 .4 0 010.7 0zm0 0h-.3m4.1 0a0.4 .4 0 11-.8 0 .4 .4 0 010.8 0zm0 0h-.4m4.1 0a0.4 .4 0 11-.7 0 .4 .4 0 010.7 0zm0 0h-.3m5.2 0a9 9 0 11-18 0 9 9 0 0118 0z" />
  </symbol>
  <symbol viewBox="0 0 24 24" id="flag">
    <path
      d="M3 3v1.5m0 16.5v-6m0 0 2.8-.7a9 9 0 016.2 .7l0.1 0a9 9 0 006.1 .8l3.1-.8a48.5 48.5 0 010-10.5l-3.1 .8a9 9 0 01-6.1-.8l-.1 0a9 9 0 00-6.2-.7l-2.8 .7m0 10.5v-10.5" />
  </symbol>
  <symbol viewBox="0 0 24 24" id="identification">
    <path
      d="M15 9h3.8m-3.8 3h3.8m-3.8 3h3.8m-14.3 4.5h15a2.3 2.3 0 002.3-2.2v-10.5a2.3 2.3 0 00-2.3-2.3h-15a2.3 2.3 0 00-2.2 2.3v10.5a2.3 2.3 0 002.2 2.2zm6-10.1a1.9 1.9 0 11-3.7 0 1.9 1.9 0 013.7 0zm1.3 6.3a6.7 6.7 0 01-3.2 .8 6.7 6.7 0 01-3.1-.8 3.4 3.4 0 016.3 0z" />
  </symbol>
</svg>